<svg xmlns="http://www.w3.org/2000/svg" xmlns:xlink="http://www.w3.org/1999/xlink" width="500" zoomAndPan="magnify" viewBox="0 0 375 374.999991" height="500" preserveAspectRatio="xMidYMid meet" version="1.0"><defs><g/><clipPath id="2c797b7dda"><path d="M 126.410156 98 L 209 98 L 209 189 L 126.410156 189 Z M 126.410156 98 " clip-rule="nonzero"/></clipPath><clipPath id="de864c294c"><path d="M 126.410156 71.292969 L 192 71.292969 L 192 131 L 126.410156 131 Z M 126.410156 71.292969 " clip-rule="nonzero"/></clipPath><clipPath id="a3ca2c5cdc"><path d="M 128 71.292969 L 211 71.292969 L 211 168 L 128 168 Z M 128 71.292969 " clip-rule="nonzero"/></clipPath><clipPath id="f9235e736f"><path d="M 141 71.292969 L 236 71.292969 L 236 190 L 141 190 Z M 141 71.292969 " clip-rule="nonzero"/></clipPath><clipPath id="2c59ad69df"><path d="M 171 77 L 252 77 L 252 195.792969 L 171 195.792969 Z M 171 77 " clip-rule="nonzero"/></clipPath></defs><rect x="-37.5" width="450" fill="#ffffff" y="-37.499999" height="449.999989" fill-opacity="1"/><rect x="-37.5" width="450" fill="#ffffff" y="-37.499999" height="449.999989" fill-opacity="1"/><rect x="-37.5" width="450" fill="#ffffff" y="-37.499999" height="449.999989" fill-opacity="1"/><g clip-path="url(#2c797b7dda)"><path fill="#4048e8" d="M 192.648438 188.972656 C 196.171875 184.914062 199.136719 181.949219 208.359375 174.109375 C 203.574219 158.9375 187.371094 145.683594 162.78125 129.21875 C 138.847656 113.1875 132.265625 105.363281 136.710938 98.207031 C 135.945312 99.472656 134.882812 101.140625 134.167969 102.433594 C 131.308594 108.15625 131.195312 108.378906 129.941406 111.898438 C 128.03125 118.121094 127.957031 118.363281 127.308594 122.046875 C 126.960938 124.703125 126.574219 128.253906 126.414062 130.921875 C 127.117188 141.183594 137.992188 148.027344 160.546875 161.316406 C 174.816406 169.726562 190.992188 179.257812 192.648438 188.972656 " fill-opacity="1" fill-rule="nonzero"/></g><path fill="#4048e8" d="M 189.777344 193.71875 C 188.929688 188.046875 175.929688 181.394531 159.476562 172.972656 C 139.386719 162.695312 131.75 157.773438 128.914062 150.613281 C 129.546875 152.5 130.375 155.023438 131.105469 156.871094 C 133.761719 162.679688 133.867188 162.90625 135.808594 166.078125 L 136.78125 167.601562 C 141.1875 173.207031 148.476562 176.699219 169.625 185.035156 C 177.058594 187.964844 185.480469 191.285156 189.777344 193.71875 " fill-opacity="1" fill-rule="nonzero"/><path fill="#4048e8" d="M 189.777344 193.71875 C 156.847656 183.765625 149.019531 181.402344 143.417969 176.03125 C 145.199219 177.800781 147.628906 180.105469 149.519531 181.757812 C 153.785156 185.023438 154.4375 185.527344 158.570312 187.972656 L 161.433594 189.5 C 166.304688 191.589844 175.84375 193.007812 189.777344 193.71875 " fill-opacity="1" fill-rule="nonzero"/><g clip-path="url(#de864c294c)"><path fill="#4048e8" d="M 126.414062 130.921875 C 126.605469 128.253906 126.929688 124.699219 127.308594 122.046875 C 128.699219 115.53125 128.726562 115.40625 129.941406 111.898438 C 132.300781 105.933594 132.394531 105.703125 134.167969 102.433594 C 134.929688 101.164062 135.898438 99.445312 136.710938 98.207031 C 140.898438 92.8125 147.347656 89.644531 163.40625 83.429688 C 173.191406 79.644531 184.277344 75.351562 190.003906 71.96875 C 199.347656 80 171.683594 96.136719 155.152344 105.777344 C 135.628906 117.164062 127.546875 121.878906 126.414062 130.921875 " fill-opacity="1" fill-rule="nonzero"/></g><g clip-path="url(#a3ca2c5cdc)"><path fill="#4048e8" d="M 136.78125 167.601562 L 135.808594 166.078125 C 132.664062 160.535156 132.542969 160.320312 131.105469 156.871094 C 130.425781 155.003906 129.5 152.515625 128.914062 150.613281 C 127.289062 141.636719 135.234375 135.460938 156.671875 121.351562 C 199.222656 93.339844 210.4375 76.726562 190.003906 71.96875 C 206.902344 73.859375 227.53125 86.578125 184.640625 121.183594 C 170.5 132.589844 154.539062 141.628906 141.417969 154.355469 C 133.695312 161.847656 135.332031 164.902344 136.78125 167.601562 " fill-opacity="1" fill-rule="nonzero"/></g><g clip-path="url(#f9235e736f)"><path fill="#4048e8" d="M 201.582031 71.671875 C 217.214844 74.511719 277.171875 102.40625 184.789062 166.421875 C 156.152344 186.265625 156.152344 186.265625 161.433594 189.5 L 158.570312 187.972656 C 154.230469 185.320312 153.328125 184.765625 149.519531 181.757812 C 147.640625 180.09375 145.1875 177.8125 143.417969 176.03125 C 138.277344 169.339844 145.632812 163.851562 169.992188 145.671875 C 264.339844 75.261719 190.789062 71.96875 190.003906 71.96875 C 193.972656 71.4375 197.84375 71.347656 201.582031 71.671875 " fill-opacity="1" fill-rule="nonzero"/></g><g clip-path="url(#2c59ad69df)"><path fill="#4048e8" d="M 221.214844 77.714844 C 225.40625 80.285156 228.179688 81.980469 232.976562 86.292969 C 237.222656 90.5 237.566406 90.847656 240.058594 93.984375 C 243.679688 99.011719 243.898438 99.3125 245.730469 102.632812 C 246.421875 104.023438 247.386719 105.855469 248.015625 107.273438 C 256.058594 127.894531 248.671875 144.351562 241.054688 154.523438 C 235.910156 161.402344 223.859375 177.507812 184.78125 194.328125 C 182.058594 195.503906 182.050781 195.507812 181.828125 195.714844 L 180.625 195.550781 C 178.328125 195.179688 178.238281 195.164062 176.996094 194.910156 C 175.75 194.628906 174.097656 194.230469 172.863281 193.910156 C 172.386719 193.71875 171.890625 193.148438 171.675781 192.683594 C 172.585938 191.015625 174.214844 189.882812 184.132812 184.03125 C 200.421875 174.421875 230.734375 156.539062 240.804688 132.792969 C 253.820312 102.09375 233.714844 84.882812 220.570312 77.359375 C 220.785156 77.476562 221 77.59375 221.214844 77.714844 " fill-opacity="1" fill-rule="nonzero"/></g><g fill="#040639" fill-opacity="1"><g transform="translate(53.819192, 221.387402)"><g><path d="M 1.15625 -9.796875 L 5.609375 -9.796875 C 6.671875 -9.796875 7.609375 -9.59375 8.421875 -9.1875 C 9.242188 -8.78125 9.878906 -8.207031 10.328125 -7.46875 C 10.785156 -6.738281 11.015625 -5.882812 11.015625 -4.90625 C 11.015625 -3.925781 10.785156 -3.066406 10.328125 -2.328125 C 9.878906 -1.585938 9.242188 -1.015625 8.421875 -0.609375 C 7.609375 -0.203125 6.671875 0 5.609375 0 L 1.15625 0 Z M 5.5 -1.859375 C 6.476562 -1.859375 7.257812 -2.128906 7.84375 -2.671875 C 8.425781 -3.222656 8.71875 -3.96875 8.71875 -4.90625 C 8.71875 -5.832031 8.425781 -6.566406 7.84375 -7.109375 C 7.257812 -7.660156 6.476562 -7.9375 5.5 -7.9375 L 3.4375 -7.9375 L 3.4375 -1.859375 Z M 5.5 -1.859375 "/></g></g></g><g fill="#040639" fill-opacity="1"><g transform="translate(70.780748, 221.387402)"><g><path d="M 8.75 -1.8125 L 8.75 0 L 1.15625 0 L 1.15625 -9.796875 L 8.5625 -9.796875 L 8.5625 -7.984375 L 3.421875 -7.984375 L 3.421875 -5.859375 L 7.96875 -5.859375 L 7.96875 -4.09375 L 3.421875 -4.09375 L 3.421875 -1.8125 Z M 8.75 -1.8125 "/></g></g></g><g fill="#040639" fill-opacity="1"><g transform="translate(85.573512, 221.387402)"><g><path d="M 0.734375 -4.8125 L 4.6875 -4.8125 L 4.6875 -3.0625 L 0.734375 -3.0625 Z M 0.734375 -4.8125 "/></g></g></g><g fill="#040639" fill-opacity="1"><g transform="translate(96.378502, 221.387402)"><g><path d="M 3.4375 -7.984375 L 3.4375 -5.390625 L 7.96875 -5.390625 L 7.96875 -3.5625 L 3.4375 -3.5625 L 3.4375 0 L 1.15625 0 L 1.15625 -9.796875 L 8.5625 -9.796875 L 8.5625 -7.984375 Z M 3.4375 -7.984375 "/></g></g></g><g fill="#040639" fill-opacity="1"><g transform="translate(110.723515, 221.387402)"><g><path d="M 1.15625 -9.796875 L 3.4375 -9.796875 L 3.4375 0 L 1.15625 0 Z M 1.15625 -9.796875 "/></g></g></g><g fill="#040639" fill-opacity="1"><g transform="translate(120.716959, 221.387402)"><g/></g></g><g fill="#040639" fill-opacity="1"><g transform="translate(130.08076, 221.387402)"><g><path d="M 5.40625 -9.796875 C 6.269531 -9.796875 7.019531 -9.648438 7.65625 -9.359375 C 8.300781 -9.078125 8.796875 -8.671875 9.140625 -8.140625 C 9.484375 -7.609375 9.65625 -6.976562 9.65625 -6.25 C 9.65625 -5.53125 9.484375 -4.898438 9.140625 -4.359375 C 8.796875 -3.828125 8.300781 -3.414062 7.65625 -3.125 C 7.019531 -2.84375 6.269531 -2.703125 5.40625 -2.703125 L 3.4375 -2.703125 L 3.4375 0 L 1.15625 0 L 1.15625 -9.796875 Z M 5.28125 -4.546875 C 5.957031 -4.546875 6.472656 -4.691406 6.828125 -4.984375 C 7.179688 -5.285156 7.359375 -5.707031 7.359375 -6.25 C 7.359375 -6.789062 7.179688 -7.207031 6.828125 -7.5 C 6.472656 -7.800781 5.957031 -7.953125 5.28125 -7.953125 L 3.4375 -7.953125 L 3.4375 -4.546875 Z M 5.28125 -4.546875 "/></g></g></g><g fill="#040639" fill-opacity="1"><g transform="translate(145.727047, 221.387402)"><g><path d="M 7.40625 0 L 5.515625 -2.734375 L 3.4375 -2.734375 L 3.4375 0 L 1.15625 0 L 1.15625 -9.796875 L 5.40625 -9.796875 C 6.269531 -9.796875 7.019531 -9.648438 7.65625 -9.359375 C 8.300781 -9.078125 8.796875 -8.671875 9.140625 -8.140625 C 9.484375 -7.609375 9.65625 -6.976562 9.65625 -6.25 C 9.65625 -5.519531 9.476562 -4.890625 9.125 -4.359375 C 8.78125 -3.828125 8.285156 -3.425781 7.640625 -3.15625 L 9.84375 0 Z M 7.359375 -6.25 C 7.359375 -6.789062 7.179688 -7.207031 6.828125 -7.5 C 6.472656 -7.800781 5.957031 -7.953125 5.28125 -7.953125 L 3.4375 -7.953125 L 3.4375 -4.53125 L 5.28125 -4.53125 C 5.957031 -4.53125 6.472656 -4.679688 6.828125 -4.984375 C 7.179688 -5.285156 7.359375 -5.707031 7.359375 -6.25 Z M 7.359375 -6.25 "/></g></g></g><g fill="#040639" fill-opacity="1"><g transform="translate(161.415311, 221.387402)"><g><path d="M 5.90625 0.171875 C 4.882812 0.171875 3.96875 -0.046875 3.15625 -0.484375 C 2.34375 -0.921875 1.703125 -1.523438 1.234375 -2.296875 C 0.773438 -3.066406 0.546875 -3.9375 0.546875 -4.90625 C 0.546875 -5.863281 0.773438 -6.726562 1.234375 -7.5 C 1.703125 -8.269531 2.34375 -8.875 3.15625 -9.3125 C 3.96875 -9.75 4.882812 -9.96875 5.90625 -9.96875 C 6.925781 -9.96875 7.84375 -9.75 8.65625 -9.3125 C 9.46875 -8.875 10.101562 -8.269531 10.5625 -7.5 C 11.03125 -6.726562 11.265625 -5.863281 11.265625 -4.90625 C 11.265625 -3.9375 11.03125 -3.066406 10.5625 -2.296875 C 10.101562 -1.523438 9.46875 -0.921875 8.65625 -0.484375 C 7.84375 -0.046875 6.925781 0.171875 5.90625 0.171875 Z M 5.90625 -1.765625 C 6.488281 -1.765625 7.007812 -1.894531 7.46875 -2.15625 C 7.9375 -2.425781 8.300781 -2.796875 8.5625 -3.265625 C 8.832031 -3.742188 8.96875 -4.289062 8.96875 -4.90625 C 8.96875 -5.507812 8.832031 -6.046875 8.5625 -6.515625 C 8.300781 -6.992188 7.9375 -7.363281 7.46875 -7.625 C 7.007812 -7.894531 6.488281 -8.03125 5.90625 -8.03125 C 5.332031 -8.03125 4.8125 -7.894531 4.34375 -7.625 C 3.875 -7.363281 3.503906 -6.992188 3.234375 -6.515625 C 2.972656 -6.046875 2.84375 -5.507812 2.84375 -4.90625 C 2.84375 -4.289062 2.972656 -3.742188 3.234375 -3.265625 C 3.503906 -2.796875 3.875 -2.425781 4.34375 -2.15625 C 4.8125 -1.894531 5.332031 -1.765625 5.90625 -1.765625 Z M 5.90625 -1.765625 "/></g></g></g><g fill="#040639" fill-opacity="1"><g transform="translate(178.628723, 221.387402)"><g><path d="M 3.1875 -7.953125 L 0.0625 -7.953125 L 0.0625 -9.796875 L 8.59375 -9.796875 L 8.59375 -7.953125 L 5.453125 -7.953125 L 5.453125 0 L 3.1875 0 Z M 3.1875 -7.953125 "/></g></g></g><g fill="#040639" fill-opacity="1"><g transform="translate(192.679915, 221.387402)"><g><path d="M 5.90625 0.171875 C 4.882812 0.171875 3.96875 -0.046875 3.15625 -0.484375 C 2.34375 -0.921875 1.703125 -1.523438 1.234375 -2.296875 C 0.773438 -3.066406 0.546875 -3.9375 0.546875 -4.90625 C 0.546875 -5.863281 0.773438 -6.726562 1.234375 -7.5 C 1.703125 -8.269531 2.34375 -8.875 3.15625 -9.3125 C 3.96875 -9.75 4.882812 -9.96875 5.90625 -9.96875 C 6.925781 -9.96875 7.84375 -9.75 8.65625 -9.3125 C 9.46875 -8.875 10.101562 -8.269531 10.5625 -7.5 C 11.03125 -6.726562 11.265625 -5.863281 11.265625 -4.90625 C 11.265625 -3.9375 11.03125 -3.066406 10.5625 -2.296875 C 10.101562 -1.523438 9.46875 -0.921875 8.65625 -0.484375 C 7.84375 -0.046875 6.925781 0.171875 5.90625 0.171875 Z M 5.90625 -1.765625 C 6.488281 -1.765625 7.007812 -1.894531 7.46875 -2.15625 C 7.9375 -2.425781 8.300781 -2.796875 8.5625 -3.265625 C 8.832031 -3.742188 8.96875 -4.289062 8.96875 -4.90625 C 8.96875 -5.507812 8.832031 -6.046875 8.5625 -6.515625 C 8.300781 -6.992188 7.9375 -7.363281 7.46875 -7.625 C 7.007812 -7.894531 6.488281 -8.03125 5.90625 -8.03125 C 5.332031 -8.03125 4.8125 -7.894531 4.34375 -7.625 C 3.875 -7.363281 3.503906 -6.992188 3.234375 -6.515625 C 2.972656 -6.046875 2.84375 -5.507812 2.84375 -4.90625 C 2.84375 -4.289062 2.972656 -3.742188 3.234375 -3.265625 C 3.503906 -2.796875 3.875 -2.425781 4.34375 -2.15625 C 4.8125 -1.894531 5.332031 -1.765625 5.90625 -1.765625 Z M 5.90625 -1.765625 "/></g></g></g><g fill="#040639" fill-opacity="1"><g transform="translate(209.893339, 221.387402)"><g><path d="M 5.859375 0.171875 C 4.859375 0.171875 3.953125 -0.046875 3.140625 -0.484375 C 2.335938 -0.921875 1.703125 -1.519531 1.234375 -2.28125 C 0.773438 -3.050781 0.546875 -3.925781 0.546875 -4.90625 C 0.546875 -5.875 0.773438 -6.742188 1.234375 -7.515625 C 1.703125 -8.285156 2.335938 -8.882812 3.140625 -9.3125 C 3.953125 -9.75 4.859375 -9.96875 5.859375 -9.96875 C 6.710938 -9.96875 7.484375 -9.816406 8.171875 -9.515625 C 8.859375 -9.222656 9.429688 -8.796875 9.890625 -8.234375 L 8.4375 -6.890625 C 7.78125 -7.648438 6.960938 -8.03125 5.984375 -8.03125 C 5.367188 -8.03125 4.820312 -7.894531 4.34375 -7.625 C 3.875 -7.363281 3.503906 -6.992188 3.234375 -6.515625 C 2.972656 -6.046875 2.84375 -5.507812 2.84375 -4.90625 C 2.84375 -4.289062 2.972656 -3.742188 3.234375 -3.265625 C 3.503906 -2.796875 3.875 -2.425781 4.34375 -2.15625 C 4.820312 -1.894531 5.367188 -1.765625 5.984375 -1.765625 C 6.960938 -1.765625 7.78125 -2.148438 8.4375 -2.921875 L 9.890625 -1.578125 C 9.429688 -1.015625 8.851562 -0.582031 8.15625 -0.28125 C 7.46875 0.0195312 6.703125 0.171875 5.859375 0.171875 Z M 5.859375 0.171875 "/></g></g></g><g fill="#040639" fill-opacity="1"><g transform="translate(225.553616, 221.387402)"><g><path d="M 5.90625 0.171875 C 4.882812 0.171875 3.96875 -0.046875 3.15625 -0.484375 C 2.34375 -0.921875 1.703125 -1.523438 1.234375 -2.296875 C 0.773438 -3.066406 0.546875 -3.9375 0.546875 -4.90625 C 0.546875 -5.863281 0.773438 -6.726562 1.234375 -7.5 C 1.703125 -8.269531 2.34375 -8.875 3.15625 -9.3125 C 3.96875 -9.75 4.882812 -9.96875 5.90625 -9.96875 C 6.925781 -9.96875 7.84375 -9.75 8.65625 -9.3125 C 9.46875 -8.875 10.101562 -8.269531 10.5625 -7.5 C 11.03125 -6.726562 11.265625 -5.863281 11.265625 -4.90625 C 11.265625 -3.9375 11.03125 -3.066406 10.5625 -2.296875 C 10.101562 -1.523438 9.46875 -0.921875 8.65625 -0.484375 C 7.84375 -0.046875 6.925781 0.171875 5.90625 0.171875 Z M 5.90625 -1.765625 C 6.488281 -1.765625 7.007812 -1.894531 7.46875 -2.15625 C 7.9375 -2.425781 8.300781 -2.796875 8.5625 -3.265625 C 8.832031 -3.742188 8.96875 -4.289062 8.96875 -4.90625 C 8.96875 -5.507812 8.832031 -6.046875 8.5625 -6.515625 C 8.300781 -6.992188 7.9375 -7.363281 7.46875 -7.625 C 7.007812 -7.894531 6.488281 -8.03125 5.90625 -8.03125 C 5.332031 -8.03125 4.8125 -7.894531 4.34375 -7.625 C 3.875 -7.363281 3.503906 -6.992188 3.234375 -6.515625 C 2.972656 -6.046875 2.84375 -5.507812 2.84375 -4.90625 C 2.84375 -4.289062 2.972656 -3.742188 3.234375 -3.265625 C 3.503906 -2.796875 3.875 -2.425781 4.34375 -2.15625 C 4.8125 -1.894531 5.332031 -1.765625 5.90625 -1.765625 Z M 5.90625 -1.765625 "/></g></g></g><g fill="#040639" fill-opacity="1"><g transform="translate(242.76704, 221.387402)"><g><path d="M 1.15625 -9.796875 L 3.4375 -9.796875 L 3.4375 -1.84375 L 8.34375 -1.84375 L 8.34375 0 L 1.15625 0 Z M 1.15625 -9.796875 "/></g></g></g><g fill="#040639" fill-opacity="1"><g transform="translate(256.622332, 221.387402)"><g><path d="M 1.828125 0.109375 C 1.453125 0.109375 1.128906 -0.0195312 0.859375 -0.28125 C 0.597656 -0.539062 0.46875 -0.867188 0.46875 -1.265625 C 0.46875 -1.660156 0.597656 -1.984375 0.859375 -2.234375 C 1.128906 -2.484375 1.453125 -2.609375 1.828125 -2.609375 C 2.210938 -2.609375 2.535156 -2.484375 2.796875 -2.234375 C 3.054688 -1.984375 3.1875 -1.660156 3.1875 -1.265625 C 3.1875 -0.867188 3.054688 -0.539062 2.796875 -0.28125 C 2.535156 -0.0195312 2.210938 0.109375 1.828125 0.109375 Z M 1.828125 0.109375 "/></g></g></g><g fill="#040639" fill-opacity="1"><g transform="translate(265.6923, 221.387402)"><g><path d="M 5.859375 0.171875 C 4.859375 0.171875 3.953125 -0.046875 3.140625 -0.484375 C 2.335938 -0.921875 1.703125 -1.519531 1.234375 -2.28125 C 0.773438 -3.050781 0.546875 -3.925781 0.546875 -4.90625 C 0.546875 -5.875 0.773438 -6.742188 1.234375 -7.515625 C 1.703125 -8.285156 2.335938 -8.882812 3.140625 -9.3125 C 3.953125 -9.75 4.859375 -9.96875 5.859375 -9.96875 C 6.710938 -9.96875 7.484375 -9.816406 8.171875 -9.515625 C 8.859375 -9.222656 9.429688 -8.796875 9.890625 -8.234375 L 8.4375 -6.890625 C 7.78125 -7.648438 6.960938 -8.03125 5.984375 -8.03125 C 5.367188 -8.03125 4.820312 -7.894531 4.34375 -7.625 C 3.875 -7.363281 3.503906 -6.992188 3.234375 -6.515625 C 2.972656 -6.046875 2.84375 -5.507812 2.84375 -4.90625 C 2.84375 -4.289062 2.972656 -3.742188 3.234375 -3.265625 C 3.503906 -2.796875 3.875 -2.425781 4.34375 -2.15625 C 4.820312 -1.894531 5.367188 -1.765625 5.984375 -1.765625 C 6.960938 -1.765625 7.78125 -2.148438 8.4375 -2.921875 L 9.890625 -1.578125 C 9.429688 -1.015625 8.851562 -0.582031 8.15625 -0.28125 C 7.46875 0.0195312 6.703125 0.171875 5.859375 0.171875 Z M 5.859375 0.171875 "/></g></g></g><g fill="#040639" fill-opacity="1"><g transform="translate(281.352577, 221.387402)"><g><path d="M 5.90625 0.171875 C 4.882812 0.171875 3.96875 -0.046875 3.15625 -0.484375 C 2.34375 -0.921875 1.703125 -1.523438 1.234375 -2.296875 C 0.773438 -3.066406 0.546875 -3.9375 0.546875 -4.90625 C 0.546875 -5.863281 0.773438 -6.726562 1.234375 -7.5 C 1.703125 -8.269531 2.34375 -8.875 3.15625 -9.3125 C 3.96875 -9.75 4.882812 -9.96875 5.90625 -9.96875 C 6.925781 -9.96875 7.84375 -9.75 8.65625 -9.3125 C 9.46875 -8.875 10.101562 -8.269531 10.5625 -7.5 C 11.03125 -6.726562 11.265625 -5.863281 11.265625 -4.90625 C 11.265625 -3.9375 11.03125 -3.066406 10.5625 -2.296875 C 10.101562 -1.523438 9.46875 -0.921875 8.65625 -0.484375 C 7.84375 -0.046875 6.925781 0.171875 5.90625 0.171875 Z M 5.90625 -1.765625 C 6.488281 -1.765625 7.007812 -1.894531 7.46875 -2.15625 C 7.9375 -2.425781 8.300781 -2.796875 8.5625 -3.265625 C 8.832031 -3.742188 8.96875 -4.289062 8.96875 -4.90625 C 8.96875 -5.507812 8.832031 -6.046875 8.5625 -6.515625 C 8.300781 -6.992188 7.9375 -7.363281 7.46875 -7.625 C 7.007812 -7.894531 6.488281 -8.03125 5.90625 -8.03125 C 5.332031 -8.03125 4.8125 -7.894531 4.34375 -7.625 C 3.875 -7.363281 3.503906 -6.992188 3.234375 -6.515625 C 2.972656 -6.046875 2.84375 -5.507812 2.84375 -4.90625 C 2.84375 -4.289062 2.972656 -3.742188 3.234375 -3.265625 C 3.503906 -2.796875 3.875 -2.425781 4.34375 -2.15625 C 4.8125 -1.894531 5.332031 -1.765625 5.90625 -1.765625 Z M 5.90625 -1.765625 "/></g></g></g><g fill="#040639" fill-opacity="1"><g transform="translate(298.566001, 221.387402)"><g><path d="M 10.078125 0 L 10.0625 -5.875 L 7.1875 -1.03125 L 6.15625 -1.03125 L 3.296875 -5.75 L 3.296875 0 L 1.15625 0 L 1.15625 -9.796875 L 3.03125 -9.796875 L 6.703125 -3.703125 L 10.3125 -9.796875 L 12.1875 -9.796875 L 12.203125 0 Z M 10.078125 0 "/></g></g></g><g fill="#8d97ad" fill-opacity="1"><g transform="translate(112.205022, 248.667392)"><g><path d="M 5.875 -8.390625 L 5.875 -7.6875 L 3.546875 -7.6875 L 3.546875 0 L 2.703125 0 L 2.703125 -7.6875 L 0.359375 -7.6875 L 0.359375 -8.390625 Z M 5.875 -8.390625 "/></g></g></g><g fill="#8d97ad" fill-opacity="1"><g transform="translate(121.349038, 248.667392)"><g><path d="M 7.1875 -8.390625 L 7.1875 0 L 6.34375 0 L 6.34375 -3.921875 L 1.796875 -3.921875 L 1.796875 0 L 0.953125 0 L 0.953125 -8.390625 L 1.796875 -8.390625 L 1.796875 -4.625 L 6.34375 -4.625 L 6.34375 -8.390625 Z M 7.1875 -8.390625 "/></g></g></g><g fill="#8d97ad" fill-opacity="1"><g transform="translate(132.401059, 248.667392)"><g><path d="M 1.796875 -7.703125 L 1.796875 -4.578125 L 4.984375 -4.578125 L 4.984375 -3.875 L 1.796875 -3.875 L 1.796875 -0.703125 L 5.34375 -0.703125 L 5.34375 0 L 0.953125 0 L 0.953125 -8.40625 L 5.34375 -8.40625 L 5.34375 -7.703125 Z M 1.796875 -7.703125 "/></g></g></g><g fill="#8d97ad" fill-opacity="1"><g transform="translate(141.341071, 248.667392)"><g><path d="M 5.421875 0 L 3.34375 -3.5 L 1.796875 -3.5 L 1.796875 0 L 0.953125 0 L 0.953125 -8.390625 L 3.484375 -8.390625 C 4.421875 -8.390625 5.128906 -8.164062 5.609375 -7.71875 C 6.097656 -7.269531 6.34375 -6.679688 6.34375 -5.953125 C 6.34375 -5.347656 6.164062 -4.828125 5.8125 -4.390625 C 5.46875 -3.960938 4.953125 -3.6875 4.265625 -3.5625 L 6.4375 0 Z M 1.796875 -4.1875 L 3.484375 -4.1875 C 4.140625 -4.1875 4.632812 -4.34375 4.96875 -4.65625 C 5.300781 -4.976562 5.46875 -5.410156 5.46875 -5.953125 C 5.46875 -6.503906 5.304688 -6.929688 4.984375 -7.234375 C 4.671875 -7.535156 4.171875 -7.6875 3.484375 -7.6875 L 1.796875 -7.6875 Z M 1.796875 -4.1875 "/></g></g></g><g fill="#8d97ad" fill-opacity="1"><g transform="translate(151.289082, 248.667392)"><g><path d="M 1.796875 -7.703125 L 1.796875 -4.578125 L 4.984375 -4.578125 L 4.984375 -3.875 L 1.796875 -3.875 L 1.796875 -0.703125 L 5.34375 -0.703125 L 5.34375 0 L 0.953125 0 L 0.953125 -8.40625 L 5.34375 -8.40625 L 5.34375 -7.703125 Z M 1.796875 -7.703125 "/></g></g></g><g fill="#8d97ad" fill-opacity="1"><g transform="translate(160.229097, 248.667392)"><g><path d="M 1.3125 -9.546875 L 1.171875 -7.21875 L 0.59375 -7.21875 L 0.4375 -9.546875 Z M 1.3125 -9.546875 "/></g></g></g><g fill="#8d97ad" fill-opacity="1"><g transform="translate(164.897102, 248.667392)"><g><path d="M 3.5 0.078125 C 2.945312 0.078125 2.460938 -0.015625 2.046875 -0.203125 C 1.628906 -0.390625 1.300781 -0.65625 1.0625 -1 C 0.820312 -1.351562 0.691406 -1.738281 0.671875 -2.15625 L 1.5625 -2.15625 C 1.601562 -1.75 1.78125 -1.390625 2.09375 -1.078125 C 2.414062 -0.773438 2.882812 -0.625 3.5 -0.625 C 4.070312 -0.625 4.523438 -0.769531 4.859375 -1.0625 C 5.191406 -1.351562 5.359375 -1.722656 5.359375 -2.171875 C 5.359375 -2.535156 5.265625 -2.828125 5.078125 -3.046875 C 4.890625 -3.265625 4.660156 -3.425781 4.390625 -3.53125 C 4.117188 -3.644531 3.742188 -3.765625 3.265625 -3.890625 C 2.703125 -4.035156 2.253906 -4.179688 1.921875 -4.328125 C 1.597656 -4.472656 1.320312 -4.695312 1.09375 -5 C 0.863281 -5.300781 0.75 -5.710938 0.75 -6.234375 C 0.75 -6.671875 0.859375 -7.054688 1.078125 -7.390625 C 1.304688 -7.734375 1.625 -8 2.03125 -8.1875 C 2.4375 -8.382812 2.90625 -8.484375 3.4375 -8.484375 C 4.207031 -8.484375 4.832031 -8.289062 5.3125 -7.90625 C 5.789062 -7.53125 6.0625 -7.039062 6.125 -6.4375 L 5.21875 -6.4375 C 5.164062 -6.78125 4.976562 -7.085938 4.65625 -7.359375 C 4.332031 -7.628906 3.898438 -7.765625 3.359375 -7.765625 C 2.859375 -7.765625 2.4375 -7.628906 2.09375 -7.359375 C 1.757812 -7.085938 1.59375 -6.722656 1.59375 -6.265625 C 1.59375 -5.910156 1.679688 -5.625 1.859375 -5.40625 C 2.046875 -5.195312 2.273438 -5.035156 2.546875 -4.921875 C 2.828125 -4.804688 3.207031 -4.6875 3.6875 -4.5625 C 4.226562 -4.40625 4.664062 -4.253906 5 -4.109375 C 5.34375 -3.960938 5.628906 -3.734375 5.859375 -3.421875 C 6.085938 -3.117188 6.203125 -2.710938 6.203125 -2.203125 C 6.203125 -1.816406 6.097656 -1.445312 5.890625 -1.09375 C 5.679688 -0.738281 5.375 -0.453125 4.96875 -0.234375 C 4.5625 -0.0234375 4.070312 0.078125 3.5 0.078125 Z M 3.5 0.078125 "/></g></g></g><g fill="#8d97ad" fill-opacity="1"><g transform="translate(174.66512, 248.667392)"><g/></g></g><g fill="#8d97ad" fill-opacity="1"><g transform="translate(180.857123, 248.667392)"><g><path d="M 4.734375 0.078125 C 3.953125 0.078125 3.242188 -0.101562 2.609375 -0.46875 C 1.984375 -0.832031 1.488281 -1.335938 1.125 -1.984375 C 0.757812 -2.640625 0.578125 -3.378906 0.578125 -4.203125 C 0.578125 -5.023438 0.757812 -5.757812 1.125 -6.40625 C 1.488281 -7.0625 1.984375 -7.570312 2.609375 -7.9375 C 3.242188 -8.300781 3.953125 -8.484375 4.734375 -8.484375 C 5.515625 -8.484375 6.21875 -8.300781 6.84375 -7.9375 C 7.476562 -7.570312 7.972656 -7.0625 8.328125 -6.40625 C 8.691406 -5.757812 8.875 -5.023438 8.875 -4.203125 C 8.875 -3.378906 8.691406 -2.640625 8.328125 -1.984375 C 7.972656 -1.335938 7.476562 -0.832031 6.84375 -0.46875 C 6.21875 -0.101562 5.515625 0.078125 4.734375 0.078125 Z M 4.734375 -0.640625 C 5.347656 -0.640625 5.90625 -0.785156 6.40625 -1.078125 C 6.90625 -1.367188 7.296875 -1.78125 7.578125 -2.3125 C 7.867188 -2.851562 8.015625 -3.484375 8.015625 -4.203125 C 8.015625 -4.910156 7.867188 -5.53125 7.578125 -6.0625 C 7.296875 -6.601562 6.90625 -7.015625 6.40625 -7.296875 C 5.90625 -7.585938 5.347656 -7.734375 4.734375 -7.734375 C 4.109375 -7.734375 3.546875 -7.585938 3.046875 -7.296875 C 2.546875 -7.015625 2.148438 -6.601562 1.859375 -6.0625 C 1.578125 -5.53125 1.4375 -4.910156 1.4375 -4.203125 C 1.4375 -3.484375 1.578125 -2.851562 1.859375 -2.3125 C 2.148438 -1.78125 2.546875 -1.367188 3.046875 -1.078125 C 3.546875 -0.785156 4.109375 -0.640625 4.734375 -0.640625 Z M 4.734375 -0.640625 "/></g></g></g><g fill="#8d97ad" fill-opacity="1"><g transform="translate(193.217147, 248.667392)"><g><path d="M 7.28125 0 L 6.4375 0 L 1.796875 -7.0625 L 1.796875 0 L 0.953125 0 L 0.953125 -8.390625 L 1.796875 -8.390625 L 6.4375 -1.34375 L 6.4375 -8.390625 L 7.28125 -8.390625 Z M 7.28125 0 "/></g></g></g><g fill="#8d97ad" fill-opacity="1"><g transform="translate(204.353169, 248.667392)"><g><path d="M 1.796875 -0.6875 L 4.8125 -0.6875 L 4.8125 0 L 0.953125 0 L 0.953125 -8.390625 L 1.796875 -8.390625 Z M 1.796875 -0.6875 "/></g></g></g><g fill="#8d97ad" fill-opacity="1"><g transform="translate(212.309176, 248.667392)"><g><path d="M 6.5 -8.390625 L 3.8125 -3.265625 L 3.8125 0 L 2.96875 0 L 2.96875 -3.265625 L 0.265625 -8.390625 L 1.21875 -8.390625 L 3.390625 -4.03125 L 5.5625 -8.390625 Z M 6.5 -8.390625 "/></g></g></g><g fill="#8d97ad" fill-opacity="1"><g transform="translate(221.981184, 248.667392)"><g/></g></g><g fill="#8d97ad" fill-opacity="1"><g transform="translate(228.173181, 248.667392)"><g><path d="M 4.734375 0.078125 C 3.953125 0.078125 3.242188 -0.101562 2.609375 -0.46875 C 1.984375 -0.832031 1.488281 -1.335938 1.125 -1.984375 C 0.757812 -2.640625 0.578125 -3.378906 0.578125 -4.203125 C 0.578125 -5.023438 0.757812 -5.757812 1.125 -6.40625 C 1.488281 -7.0625 1.984375 -7.570312 2.609375 -7.9375 C 3.242188 -8.300781 3.953125 -8.484375 4.734375 -8.484375 C 5.515625 -8.484375 6.21875 -8.300781 6.84375 -7.9375 C 7.476562 -7.570312 7.972656 -7.0625 8.328125 -6.40625 C 8.691406 -5.757812 8.875 -5.023438 8.875 -4.203125 C 8.875 -3.378906 8.691406 -2.640625 8.328125 -1.984375 C 7.972656 -1.335938 7.476562 -0.832031 6.84375 -0.46875 C 6.21875 -0.101562 5.515625 0.078125 4.734375 0.078125 Z M 4.734375 -0.640625 C 5.347656 -0.640625 5.90625 -0.785156 6.40625 -1.078125 C 6.90625 -1.367188 7.296875 -1.78125 7.578125 -2.3125 C 7.867188 -2.851562 8.015625 -3.484375 8.015625 -4.203125 C 8.015625 -4.910156 7.867188 -5.53125 7.578125 -6.0625 C 7.296875 -6.601562 6.90625 -7.015625 6.40625 -7.296875 C 5.90625 -7.585938 5.347656 -7.734375 4.734375 -7.734375 C 4.109375 -7.734375 3.546875 -7.585938 3.046875 -7.296875 C 2.546875 -7.015625 2.148438 -6.601562 1.859375 -6.0625 C 1.578125 -5.53125 1.4375 -4.910156 1.4375 -4.203125 C 1.4375 -3.484375 1.578125 -2.851562 1.859375 -2.3125 C 2.148438 -1.78125 2.546875 -1.367188 3.046875 -1.078125 C 3.546875 -0.785156 4.109375 -0.640625 4.734375 -0.640625 Z M 4.734375 -0.640625 "/></g></g></g><g fill="#8d97ad" fill-opacity="1"><g transform="translate(240.5332, 248.667392)"><g><path d="M 7.28125 0 L 6.4375 0 L 1.796875 -7.0625 L 1.796875 0 L 0.953125 0 L 0.953125 -8.390625 L 1.796875 -8.390625 L 6.4375 -1.34375 L 6.4375 -8.390625 L 7.28125 -8.390625 Z M 7.28125 0 "/></g></g></g><g fill="#8d97ad" fill-opacity="1"><g transform="translate(251.669216, 248.667392)"><g><path d="M 1.796875 -7.703125 L 1.796875 -4.578125 L 4.984375 -4.578125 L 4.984375 -3.875 L 1.796875 -3.875 L 1.796875 -0.703125 L 5.34375 -0.703125 L 5.34375 0 L 0.953125 0 L 0.953125 -8.40625 L 5.34375 -8.40625 L 5.34375 -7.703125 Z M 1.796875 -7.703125 "/></g></g></g><g fill="#8d97ad" fill-opacity="1"><g transform="translate(260.609225, 248.667392)"><g><path d="M 1.109375 0.0625 C 0.929688 0.0625 0.78125 0.00390625 0.65625 -0.109375 C 0.539062 -0.234375 0.484375 -0.382812 0.484375 -0.5625 C 0.484375 -0.738281 0.539062 -0.882812 0.65625 -1 C 0.78125 -1.113281 0.929688 -1.171875 1.109375 -1.171875 C 1.273438 -1.171875 1.414062 -1.113281 1.53125 -1 C 1.644531 -0.882812 1.703125 -0.738281 1.703125 -0.5625 C 1.703125 -0.382812 1.644531 -0.234375 1.53125 -0.109375 C 1.414062 0.00390625 1.273438 0.0625 1.109375 0.0625 Z M 1.109375 0.0625 "/></g></g></g></svg>