<?xml version="1.0" standalone="no"?>
<!DOCTYPE svg PUBLIC "-//W3C//DTD SVG 20010904//EN"
 "http://www.w3.org/TR/2001/REC-SVG-20010904/DTD/svg10.dtd">
<svg version="1.0" xmlns="http://www.w3.org/2000/svg"
 width="192.000000pt" height="192.000000pt" viewBox="0 0 192.000000 192.000000"
 preserveAspectRatio="xMidYMid meet">

<g transform="translate(0.000000,192.000000) scale(0.100000,-0.100000)"
fill="#000000" stroke="none">
<path d="M1010 1544 c0 -5 19 -10 42 -11 55 -4 137 -51 160 -94 23 -42 19
-108 -11 -167 -35 -69 -137 -187 -228 -263 -49 -41 -94 -80 -101 -86 -7 -7
-17 -13 -20 -13 -12 0 -82 50 -82 59 0 4 37 36 83 70 102 77 217 189 257 251
60 93 48 180 -30 220 -51 26 -51 26 -33 -10 23 -47 2 -92 -82 -176 -67 -67
-210 -180 -301 -237 l-41 -25 -57 44 c-31 24 -56 46 -56 48 0 2 48 32 108 66
227 133 343 224 357 281 9 38 -9 44 -58 21 -23 -11 -103 -44 -177 -75 -201
-82 -205 -84 -240 -113 -100 -85 -170 -336 -113 -412 14 -19 18 -33 12 -47
-16 -42 -8 -92 24 -160 19 -39 42 -77 52 -85 10 -8 28 -31 41 -51 32 -51 146
-134 213 -155 31 -9 62 -22 70 -28 7 -6 39 -10 70 -10 48 0 69 8 150 52 52 29
96 52 98 52 18 0 182 123 236 176 197 195 239 397 126 603 -33 59 -54 79 -26
24 8 -15 20 -52 27 -82 37 -158 -83 -388 -275 -529 -27 -20 -56 -43 -64 -50
-15 -15 -14 -16 -65 57 -31 44 -35 56 -24 66 7 7 42 38 78 70 101 91 177 183
217 263 32 63 36 82 36 145 0 53 -5 83 -20 112 -48 92 -198 193 -304 203 -27
2 -49 1 -49 -4z m-430 -781 l47 -26 -44 -39 -44 -38 -39 26 c-22 15 -40 29
-40 32 0 7 62 72 68 72 2 0 25 -12 52 -27z m319 -203 c28 -22 51 -44 51 -48 0
-14 -67 -41 -76 -32 -5 5 -33 22 -62 38 l-52 29 37 26 c21 15 41 27 44 27 4 0
30 -18 58 -40z m-154 -74 c81 -29 96 -36 91 -45 -3 -5 -40 2 -81 16 -41 14
-72 29 -69 34 7 12 12 11 59 -5z"/>
</g>
</svg>
